{"title":"Brooklyn(2015)MPEG-4[DaScubaDude]","uid":14749793,"size":1239051408,"categoryP":"video","categoryS":"movies","magnet":"?xt=urn:btih:26957cf7d539fb2439f01bf4afe2b9d0301e1aa3&amp;dn=Brooklyn%282015%29MPEG-4%5BDaScubaDude%5D&amp;tr=udp%3A%2F%2Ftracker.leechers-paradise.org%3A6969&amp;tr=udp%3A%2F%2Fzer0day.ch%3A1337&amp;tr=udp%3A%2F%2Fopen.demonii.com%3A1337&amp;tr=udp%3A%2F%2Ftracker.coppersurfer.tk%3A6969&amp;tr=udp%3A%2F%2Fexodus.desync.com%3A6969","seeders":1,"leechers":3,"uploader":"dascuba","files":1,"time":1464745812,"description":"Brooklyn (2015)\r\nPG-13 | 1h 51min | Drama, Romance | 25 November 2015 (USA)\r\nAn Irish immigrant lands in 1950s Brooklyn, where she quickly falls into a romance with a local. When her past catches up with her, however, she must choose between two countries and the lives that exist within.\r\nDirector: John Crowley\r\nWriters: Nick Hornby (screenplay), Colm Tóibín (novel) (as Colm Toibin)\r\nStars: Saoirse Ronan, Emory Cohen, Domhnall Gleeson |\r\n\r\nGeneral\r\nComplete name                            : BrooklynBROOKLYN_Title1.mp4\r\nFormat                                   : MPEG-4\r\nFormat profile                           : Base Media\r\nCodec ID                                 : isom (isom/iso2/avc1/mp41)\r\nFile size                                : 1.15 GiB\r\nDuration                                 : 1h 51mn\r\nOverall bit rate                         : 1 484 Kbps\r\nMovie name                               : BROOKLYN\r\nGenre                                    : Drama\r\nWriting application                      : Lavf54.6.100\r\n\r\nVideo\r\nID                                       : 1\r\nFormat                                   : AVC\r\nFormat/Info                              : Advanced Video Codec\r\nFormat profile                           :   \r\nFormat settings, CABAC                   : No\r\nFormat settings, ReFrames                : 6 frames\r\nCodec ID                                 : avc1\r\nCodec ID/Info                            : Advanced Video Coding\r\nDuration                                 : 1h 51mn\r\nBit rate                                 : 1 213 Kbps\r\nWidth                                    : 720 pixels\r\nHeight                                   : 404 pixels\r\nDisplay aspect ratio                     : 16:9\r\nFrame rate mode                          : Constant\r\nFrame rate                               : 29.970 (30000/1001) fps\r\nColor space                              : YUV\r\nChroma subsampling                       : 4:2:0\r\nBit depth                                : 8 bits\r\nScan type                                : Progressive\r\nBits/(Pixel*Frame)                       : 0.139\r\nStream size                              : 966 MiB (82%)\r\n\r\nAudio\r\nID                                       : 2\r\nFormat                                   : AAC\r\nFormat/Info                              : Advanced Audio Codec\r\nFormat profile                           : LC\r\nCodec ID                                 : 40\r\nDuration                                 : 1h 51mn\r\nBit rate mode                            : Constant\r\nBit rate                                 : 265 Kbps\r\nChannel(s)                               : 2 channels\r\nChannel(s)_Original                      : 6 channels\r\nChannel positions                        : Front: L C R, Side: L R, LFE\r\nSampling rate                            : 44.1 KHz\r\nFrame rate                               : 43.066 fps (1024 spf)\r\nCompression mode                         : Lossy\r\nStream size                              : 210 MiB (18%)\r\nDefault                                  : Yes\r\nAlternate group                          : 1","torrent":{"xt":"urn:btih:26957cf7d539fb2439f01bf4afe2b9d0301e1aa3","amp;dn":"Brooklyn%282015%29MPEG-4%5BDaScubaDude%5D","amp;tr":["udp%3A%2F%2Ftracker.leechers-paradise.org%3A6969","udp%3A%2F%2Fzer0day.ch%3A1337","udp%3A%2F%2Fopen.demonii.com%3A1337","udp%3A%2F%2Ftracker.coppersurfer.tk%3A6969","udp%3A%2F%2Fexodus.desync.com%3A6969"],"infoHash":"26957cf7d539fb2439f01bf4afe2b9d0301e1aa3","infoHashBuffer":{"type":"Buffer","data":[38,149,124,247,213,57,251,36,57,240,27,244,175,226,185,208,48,30,26,163]},"announce":[],"urlList":[]}}